<svg width="2316" height="2500" viewBox="0 0 2316 2500" fill="none" xmlns="http://www.w3.org/2000/svg">
<g clip-path="url(#clip0_324_21)">
<path d="M738.539 1988.54C738.539 2067.41 674.006 2139.11 587.963 2139.11C501.92 2139.11 437.387 2074.58 437.387 1988.54V1343.21C437.387 1264.34 501.92 1192.64 587.963 1192.64C674.006 1192.64 738.539 1257.17 738.539 1343.21V1988.54ZM1168.76 2160.63C1168.76 2239.5 1104.22 2311.2 1018.18 2311.2C932.136 2311.2 874.774 2246.67 874.774 2160.63V1178.3C874.774 1099.42 939.307 1027.72 1025.35 1027.72C1111.39 1027.72 1175.93 1092.25 1175.93 1178.3V2160.63H1168.76ZM301.152 1845.13C301.152 1924.01 236.619 1995.71 150.576 1995.71C64.5325 1995.71 0 1931.18 0 1845.13V1493.79C0 1414.92 64.5325 1343.21 150.576 1343.21C236.619 1343.21 301.152 1414.92 301.152 1493.79V1845.13ZM1598.97 2318.37C1598.97 2397.24 1534.44 2468.95 1448.4 2468.95C1369.52 2468.95 1304.99 2397.24 1304.99 2318.37V1013.38C1304.99 934.508 1369.52 862.805 1455.57 862.805C1534.44 862.805 1606.14 927.337 1606.14 1013.38V2318.37H1598.97Z" fill="#231F20"/>
<path d="M2072.21 2253.84C2043.53 2253.84 2022.02 2246.67 1993.34 2239.5L1814.08 2182.14C1785.4 2174.97 1763.89 2139.11 1778.23 2110.43C1785.4 2081.75 1821.25 2060.24 1849.93 2074.58L2036.36 2131.94C2072.21 2146.28 2115.23 2139.11 2151.08 2110.43C2186.94 2088.92 2201.28 2045.9 2201.28 2010.05V812.613C2201.28 755.251 2165.42 705.059 2115.23 690.718L358.514 160.118C322.663 145.777 279.641 152.947 243.789 174.458C215.108 203.139 193.598 238.991 193.598 282.012V1106.59C193.598 1142.45 164.916 1163.96 136.235 1163.96C100.384 1163.96 78.873 1135.28 78.873 1106.59V282.012C78.873 203.139 114.724 131.436 179.257 88.4148C243.789 38.2229 322.663 31.0526 394.365 52.5634L2143.91 583.164C2244.3 611.845 2316 712.229 2316 819.783V2017.22C2316 2096.09 2280.15 2167.8 2215.62 2217.99C2172.59 2232.33 2122.4 2253.84 2072.21 2253.84Z" fill="#231F20"/>
</g>
<defs>
<clipPath id="clip0_324_21">
<rect width="2316" height="2500" fill="white"/>
</clipPath>
</defs>
</svg>
