<svg width="2500" height="689" viewBox="0 0 2500 689" fill="none" xmlns="http://www.w3.org/2000/svg">
<g clip-path="url(#clip0_324_6)">
<path d="M604.31 0.574341V531.492L672.496 531.753V279.046H837.237V212.161H672.496V67.4596H886.946V0.574341H604.31ZM1010.05 108.319C1034.77 108.319 1054.55 88.2799 1054.55 63.8161C1054.55 39.3522 1034.51 19.3126 1010.05 19.3126C985.322 19.3126 965.542 39.3522 965.542 63.8161C965.542 88.2799 985.582 108.319 1010.05 108.319ZM975.432 175.205V531.492H1043.62V175.205H975.432Z" fill="black"/>
<path fill-rule="evenodd" clip-rule="evenodd" d="M1296.85 164.795C1206.02 164.795 1142.78 241.569 1142.78 332.658C1142.78 423.747 1206.02 500.522 1296.85 500.522C1338.49 500.522 1372.58 484.386 1397.56 458.361V505.467C1397.56 564.545 1351.24 613.733 1290.6 613.733C1268.74 613.733 1247.14 605.405 1229.96 593.433L1195.61 652.771C1222.93 670.468 1255.47 680.618 1290.34 680.618C1387.15 680.618 1465.49 602.282 1465.49 505.467V175.205H1397.56V206.956C1372.58 180.93 1338.49 164.795 1296.85 164.795ZM1211.22 332.658C1211.22 276.183 1254.42 231.68 1304.39 231.68C1354.36 231.68 1397.56 276.183 1397.56 332.658C1397.56 389.134 1354.36 433.637 1304.39 433.637C1254.42 433.637 1211.22 389.134 1211.22 332.658Z" fill="black"/>
<path d="M1711.95 231.68C1671.61 231.68 1638.82 266.033 1638.82 306.373V531.492H1570.63V175.205H1638.82V207.736C1658.86 181.971 1688.27 164.795 1726.79 164.795C1774.67 164.795 1811.37 188.478 1832.71 224.913C1856.39 189.779 1894.91 164.795 1941.49 164.795C2019.31 164.795 2067.72 227.516 2067.98 305.071V531.492H1999.79V306.112C1999.79 265.773 1967 231.42 1926.66 231.42C1886.32 231.42 1853.53 265.773 1853.53 306.112V531.492H1785.34V306.112C1785.08 265.773 1752.29 231.68 1711.95 231.68Z" fill="black"/>
<path fill-rule="evenodd" clip-rule="evenodd" d="M2431.81 215.544C2401.36 184.053 2359.72 164.795 2311.58 164.795C2210.08 164.795 2137.73 250.939 2137.73 353.479C2137.73 456.019 2209.82 542.163 2311.58 542.163C2359.72 542.163 2401.36 522.644 2431.81 491.413V531.492H2500V175.205H2431.81V215.544ZM2206.17 353.479C2206.17 285.552 2258.22 231.68 2319.12 231.68C2379.76 231.68 2432.07 285.292 2432.07 353.479C2432.07 421.405 2380.02 475.278 2319.12 475.278C2258.22 475.017 2206.17 421.405 2206.17 353.479Z" fill="black"/>
<path d="M229.284 344.63C229.284 281.388 280.554 229.858 344.056 229.858C407.297 229.858 458.828 281.128 458.828 344.63C458.828 407.872 407.558 459.402 344.056 459.402C280.814 459.402 229.284 407.872 229.284 344.63Z" fill="#1ABCFE"/>
<path d="M0 573.914C0 510.672 51.27 459.142 114.772 459.142H229.544V573.914C229.544 637.156 178.274 688.686 114.772 688.686C51.27 688.686 0 637.416 0 573.914Z" fill="#0ACF83"/>
<path d="M229.284 0.574341V229.858H344.056C407.297 229.858 458.828 178.588 458.828 115.086C458.828 51.8444 407.558 0.314087 344.056 0.314087H229.284V0.574341Z" fill="#FF7262"/>
<path d="M0 115.346C0 178.588 51.27 230.118 114.772 230.118H229.544V0.574341H114.772C51.27 0.574341 0 51.8444 0 115.346Z" fill="#F24E1E"/>
<path d="M0 344.63C0 407.872 51.27 459.402 114.772 459.402H229.544V229.858H114.772C51.27 229.858 0 281.388 0 344.63Z" fill="#A259FF"/>
</g>
<defs>
<clipPath id="clip0_324_6">
<rect width="2500" height="689" fill="white"/>
</clipPath>
</defs>
</svg>
